<svg xmlns="http://www.w3.org/2000/svg" width="1412" height="205" viewBox="0 0 1412 205" fill="none">
    <path
        d="M2 42.6H1.5V42.1H2V42.6ZM40.6636 42.6H41.1636V43.1H40.6636V42.6ZM40.6636 5.12308H40.1636V4.62308H40.6636V5.12308ZM681.835 5.12308V4.62308H682.036L682.181 4.7619L681.835 5.12308ZM735.5 56.5L735.85 56.8574L735.504 57.1958L735.154 56.8612L735.5 56.5ZM21.3318 5.12308L20.9838 4.76405L21.8318 3.94208V5.12308H21.3318ZM2 23.8615V24.3615H0.765779L1.652 23.5025L2 23.8615ZM639.95 23.8615V23.3615H640.153L640.298 23.5032L639.95 23.8615ZM673.5 56.5L673.847 56.8604L673.498 57.1956L673.151 56.8584L673.5 56.5ZM1410 39.4769V38.9769H1410.5V39.4769H1410ZM1371.34 39.4769V39.9769H1370.84V39.4769H1371.34ZM1371.34 2V1.5H1371.84V2H1371.34ZM730.165 2L729.818 1.63963L729.963 1.5H730.165V2ZM1390.67 2H1390.17V0.819L1391.02 1.64098L1390.67 2ZM1410 20.7385L1410.35 20.3794L1411.23 21.2385H1410V20.7385ZM772.05 20.7385L771.701 20.3811L771.846 20.2385H772.05V20.7385ZM1.5 205V42.6H2.5V205H1.5ZM2 42.1H21.3318V43.1H2V42.1ZM21.3318 42.1H40.6636V43.1H21.3318V42.1ZM40.1636 42.6V23.8615H41.1636V42.6H40.1636ZM40.1636 23.8615V5.12308H41.1636V23.8615H40.1636ZM40.6636 4.62308H681.835V5.62308H40.6636V4.62308ZM20.8318 189.385V42.6H21.8318V189.385H20.8318ZM20.8318 42.6V23.8615H21.8318V42.6H20.8318ZM20.8318 23.8615V5.12308H21.8318V23.8615H20.8318ZM21.6798 5.4821L2.348 24.2206L1.652 23.5025L20.9838 4.76405L21.6798 5.4821ZM2 23.3615H21.3318V24.3615H2V23.3615ZM21.3318 23.3615H40.6636V24.3615H21.3318V23.3615ZM40.6636 23.3615H639.95V24.3615H40.6636V23.3615ZM640.298 23.5032L673.849 56.1416L673.151 56.8584L639.601 24.2199L640.298 23.5032ZM1409.5 201.877V39.4769H1410.5V201.877H1409.5ZM1410 39.9769H1390.67V38.9769H1410V39.9769ZM1390.67 39.9769H1371.34V38.9769H1390.67V39.9769ZM1370.84 39.4769V20.7385H1371.84V39.4769H1370.84ZM1370.84 20.7385V2H1371.84V20.7385H1370.84ZM1371.34 2.5H730.165V1.5H1371.34V2.5ZM1390.17 186.262V39.4769H1391.17V186.262H1390.17ZM1390.17 39.4769V20.7385H1391.17V39.4769H1390.17ZM1390.17 20.7385V2H1391.17V20.7385H1390.17ZM1391.02 1.64098L1410.35 20.3794L1409.65 21.0975L1390.32 2.35902L1391.02 1.64098ZM1410 21.2385H1390.67V20.2385H1410V21.2385ZM1390.67 21.2385H1371.34V20.2385H1390.67V21.2385ZM1371.34 21.2385H772.05V20.2385H1371.34V21.2385ZM772.4 21.0959L735.85 56.8574L735.15 56.1426L771.701 20.3811L772.4 21.0959ZM682.181 4.7619L735.846 56.1388L735.154 56.8612L681.489 5.48425L682.181 4.7619ZM730.511 2.36037L673.847 56.8604L673.153 56.1396L729.818 1.63963L730.511 2.36037Z"
        fill="#9A8C0C" />
</svg>