<svg xmlns="http://www.w3.org/2000/svg" width="46" height="46" viewBox="0 0 36 36" fill="none">
    <rect width="36" height="36" fill="#FBFAE3" />
    <rect width="36" height="36" fill="#FBFAE3" />
    <path fill-rule="evenodd" clip-rule="evenodd"
        d="M10.125 26.442H11.4449L16.9347 20.1484L21.2377 26.442H25.875L19.4831 17.2279L25.3319 10.5229H23.995L18.8982 16.364L14.804 10.5229H10.1668L16.3498 19.3669L10.125 26.442ZM12.0885 11.5102H14.2191L24.0786 25.4959H21.7808L12.0885 11.5102Z"
        fill="#221700" />
    <path
        d="M11.4449 26.442V26.942H11.6722L11.8216 26.7707L11.4449 26.442ZM10.125 26.442L9.74961 26.1117L9.01912 26.942H10.125V26.442ZM16.9347 20.1484L17.3474 19.8662L16.9827 19.3327L16.5579 19.8197L16.9347 20.1484ZM21.2377 26.442L20.825 26.7242L20.9739 26.942H21.2377V26.442ZM25.875 26.442V26.942H26.8304L26.2858 26.157L25.875 26.442ZM19.4831 17.2279L19.1063 16.8992L18.8502 17.1928L19.0723 17.5129L19.4831 17.2279ZM25.3319 10.5229L25.7087 10.8516L26.4316 10.0229H25.3319V10.5229ZM23.995 10.5229V10.0229H23.7677L23.6183 10.1942L23.995 10.5229ZM18.8982 16.364L18.4888 16.651L18.8552 17.1738L19.2749 16.6928L18.8982 16.364ZM14.804 10.5229L15.2135 10.236L15.0642 10.0229H14.804V10.5229ZM10.1668 10.5229V10.0229H9.20714L9.75699 10.8094L10.1668 10.5229ZM16.3498 19.3669L16.7252 19.6971L16.9846 19.4023L16.7596 19.0804L16.3498 19.3669ZM14.2191 11.5102L14.6278 11.2221L14.4784 11.0102H14.2191V11.5102ZM12.0885 11.5102V11.0102H11.1337L11.6775 11.795L12.0885 11.5102ZM24.0786 25.4959V25.9959H25.0428L24.4872 25.2078L24.0786 25.4959ZM21.7808 25.4959L21.3699 25.7807L21.519 25.9959H21.7808V25.4959ZM11.4449 25.942H10.125V26.942H11.4449V25.942ZM16.5579 19.8197L11.0681 26.1133L11.8216 26.7707L17.3115 20.4771L16.5579 19.8197ZM21.6505 26.1598L17.3474 19.8662L16.5219 20.4306L20.825 26.7242L21.6505 26.1598ZM25.875 25.942H21.2377V26.942H25.875V25.942ZM19.0723 17.5129L25.4642 26.727L26.2858 26.157L19.8939 16.9429L19.0723 17.5129ZM24.9551 10.1943L19.1063 16.8992L19.8599 17.5565L25.7087 10.8516L24.9551 10.1943ZM23.995 11.0229H25.3319V10.0229H23.995V11.0229ZM19.2749 16.6928L24.3718 10.8517L23.6183 10.1942L18.5215 16.0353L19.2749 16.6928ZM14.3946 10.8099L18.4888 16.651L19.3076 16.0771L15.2135 10.236L14.3946 10.8099ZM10.1668 11.0229H14.804V10.0229H10.1668V11.0229ZM16.7596 19.0804L10.5766 10.2365L9.75699 10.8094L15.94 19.6533L16.7596 19.0804ZM10.5004 26.7723L16.7252 19.6971L15.9744 19.0366L9.74961 26.1117L10.5004 26.7723ZM14.2191 11.0102H12.0885V12.0102H14.2191V11.0102ZM24.4872 25.2078L14.6278 11.2221L13.8105 11.7983L23.6699 25.784L24.4872 25.2078ZM21.7808 25.9959H24.0786V24.9959H21.7808V25.9959ZM11.6775 11.795L21.3699 25.7807L22.1918 25.2111L12.4995 11.2254L11.6775 11.795Z"
        fill="#221700" />
</svg>