<svg xmlns="http://www.w3.org/2000/svg" viewBox="0 0 1192 789" fill="none">
    <path
        d="M34.1476 543.759L14.2591 561.851V763.877H34.1476M34.1476 543.759V763.877M34.1476 543.759V423.146M34.1476 236.195L14.2591 218.103V22.1073H34.1476M34.1476 236.195V22.1073M34.1476 236.195V362.839M1161.17 236.195L1181.06 218.103V22.1073H1161.17M1161.17 236.195V22.1073M1161.17 236.195V365.854M1161.17 543.759L1181.06 561.851V763.877H1161.17M1161.17 543.759V763.877M1161.17 543.759V420.13M34.1476 763.877H272.811M34.1476 22.1073H279.44M1161.17 22.1073H919.189M1161.17 763.877H919.189M919.189 763.877L892.671 788H299.329L272.811 763.877M919.189 763.877H272.811M34.1476 423.146L1 392.992L34.1476 362.839M34.1476 423.146V362.839M279.44 22.1073L302.643 1H895.986L919.189 22.1073M279.44 22.1073H919.189M1161.17 420.13L1191 392.992L1161.17 365.854M1161.17 420.13V365.854"
        stroke="#221700" />
</svg>