<svg xmlns="http://www.w3.org/2000/svg" width="1412" height="205" viewBox="0 0 1412 205" fill="none">
    <path
        d="M1410 205V42.6H1390.67M1390.67 42.6H1371.34V23.8615M1390.67 42.6V189.385M1390.67 42.6V23.8615M1371.34 23.8615V5.12308H730.165L676.5 56.5L639.95 20.7385H40.6636M1371.34 23.8615H1390.67M1371.34 23.8615H772.05L738.5 56.5L681.835 2H40.6636V20.7385M1390.67 23.8615V5.12308L1410 23.8615H1390.67ZM2 201.877V39.4769H21.3318M21.3318 39.4769H40.6636V20.7385M21.3318 39.4769V186.262M21.3318 39.4769V20.7385M40.6636 20.7385H21.3318M21.3318 20.7385V2L2 20.7385H21.3318Z"
        stroke="#FBFAE3" />
</svg>