<svg xmlns="http://www.w3.org/2000/svg" width="214" height="74" viewBox="0 0 214 74" fill="none">
    <g filter="url(#filter0_d_129_340)">
      <path d="M22.1836 34.2045L17.204 25.804L6 62L11.9132 4L22.8683 22.2833L28.5326 13.2034L45.3386 52.3024L27.2877 25.1246L22.1836 34.2045Z" fill="#FBFAE3"/>
      <path d="M48.2554 23.3951H56.8451L49.8115 51.0671L46.0146 52.6731L48.2554 23.3951ZM58.0278 10.918L52.7992 20.9862L47.1972 9.3738L58.0278 10.918Z" fill="#FBFAE3"/>
      <path d="M81.3832 51.8701L68.872 25.804L57.6679 62L63.5812 4L77.773 37.9105L86.9852 13.3269V13.2034L81.3832 51.8701Z" fill="#FBFAE3"/>
      <path d="M116.102 13.3269L110.935 23.148L97.4282 18.0213L96.7435 28.7689L105.084 24.9393L106.703 34.0809L96.7435 35.0075L95.5608 47.4846L115.106 37.9723L115.417 50.6965L89.7721 52.3024L86.9711 14.4388L116.102 13.3269Z" fill="#FBFAE3"/>
      <path d="M116.332 13.5122C119.195 12.9357 121.706 12.9563 123.864 13.574C126.021 14.1505 127.806 15.1388 129.217 16.5389C130.669 17.8978 131.727 19.5243 132.391 21.4185C133.097 23.3127 133.387 25.2481 133.263 27.2247C133.138 29.2013 132.619 31.0955 131.707 32.9073C130.794 34.7192 129.445 36.2222 127.661 37.4164L138.242 52.4878L124.548 40.0724C124.424 41.1842 124.237 42.7078 123.988 44.6432C123.781 46.5786 123.532 48.617 123.241 50.7583C122.951 52.8995 122.64 54.9791 122.308 56.9968C121.976 59.0146 121.644 60.6617 121.312 61.9382L116.332 13.5122ZM123.615 31.5485L123.677 31.7338C124.59 31.9397 125.337 31.7544 125.918 31.1779C126.499 30.5602 126.914 29.7572 127.163 28.7689C127.412 27.7806 127.495 26.71 127.412 25.557C127.329 24.404 127.08 23.3951 126.665 22.5304C126.291 21.6656 125.752 21.0479 125.046 20.6773C124.341 20.3067 123.511 20.4097 122.557 20.9862L123.615 31.5485Z" fill="#FBFAE3"/>
      <path d="M148.799 13.5122L148.986 59.4058L161.56 18.3919L168.967 17.2801L148.613 62L138.156 15.4888L148.799 13.5122Z" fill="#FBFAE3"/>
      <path d="M186.028 13.5122L208 52.6731L195.925 41.0607L181.484 41.7402L169.408 62L186.028 13.5122ZM183.227 36.737L192.999 36.5517L187.21 26.1747L183.227 36.737Z" fill="#FBFAE3"/>
      <path d="M21.9686 34.332L22.1894 34.7044L22.4015 34.327L27.3054 25.6032L45.1304 52.4408L45.5683 52.2037L28.7623 13.1047L28.5735 12.6655L28.3205 13.0711L22.8726 21.8041L12.1277 3.8715L11.7409 3.22592L11.6645 3.97464L5.75129 61.9746L6.23882 62.0739L17.2763 26.4162L21.9686 34.332ZM48.2554 23.1451H48.0238L48.0061 23.376L45.7653 52.654L45.734 53.0632L46.112 52.9033L49.9089 51.2973L50.0232 51.249L50.0538 51.1287L57.0874 23.4567L57.1666 23.1451H56.8451H48.2554ZM58.2497 11.0332L58.4122 10.7203L58.0631 10.6705L47.2325 9.12631L46.7683 9.06012L46.972 9.48243L52.5741 21.0948L52.791 21.5445L53.0211 21.1014L58.2497 11.0332ZM81.1578 51.9783L81.5129 52.7181L81.6306 51.9059L86.8348 15.9851L89.5228 52.3209L89.541 52.5674L89.7877 52.552L115.433 50.946L115.673 50.931L115.667 50.6904L115.356 37.9662L115.346 37.5773L114.996 37.7475L95.8517 47.0649L96.9728 35.2372L106.726 34.3299L106.996 34.3047L106.949 34.0374L105.33 24.8957L105.274 24.5771L104.98 24.7121L97.0196 28.367L97.6561 18.3752L110.847 23.3818L111.053 23.4603L111.157 23.2644L116.114 13.8395L121.063 61.9638L121.554 62.0012C121.888 60.7144 122.222 59.0591 122.554 57.0374C122.887 55.0172 123.198 52.9353 123.489 50.7919C123.78 48.6495 124.029 46.6097 124.236 44.6726C124.451 43.0051 124.619 41.6425 124.742 40.5851L138.074 52.673L138.447 52.3441L128.011 37.4801C129.725 36.287 131.033 34.8 131.93 33.0198C132.857 31.1786 133.385 29.2515 133.512 27.2404C133.639 25.2288 133.343 23.259 132.626 21.3332C131.949 19.4036 130.87 17.7443 129.39 16.3587C127.945 14.9262 126.123 13.9191 123.93 13.3331C121.763 12.713 119.26 12.686 116.431 13.2378L116.524 13.0606L116.092 13.0771L87.0957 14.1838L87.1995 13.4673L87.2193 13.4147L87.2352 13.3722V13.3269V13.2034L86.7378 13.1676L86.7124 13.3423L77.7601 37.2323L63.8118 3.90348L63.3325 3.97464L57.4192 61.9746L57.9068 62.0739L68.9224 26.4868L81.1578 51.9783ZM126.435 22.6295L126.435 22.6296L126.439 22.6385C126.838 23.4698 127.081 24.447 127.162 25.5749C127.244 26.7049 127.162 27.7486 126.92 28.7078C126.68 29.6614 126.284 30.4228 125.739 31.0034C125.256 31.4804 124.645 31.66 123.868 31.5177L123.861 31.4955L122.821 21.1211C123.671 20.6433 124.361 20.5997 124.93 20.8986C125.576 21.238 126.08 21.8072 126.435 22.6295ZM149.049 13.5112L149.048 13.2118L148.754 13.2665L138.11 15.243L137.855 15.2904L137.912 15.5437L148.369 62.0548L148.532 62.7808L148.84 62.1036L169.194 17.3836L169.385 16.9645L168.93 17.0329L161.523 18.1447L161.367 18.1681L161.321 18.3186L149.23 57.7592L149.049 13.5112ZM186.246 13.3899L185.972 12.9027L185.791 13.4312L169.172 61.9189L169.623 62.128L181.63 41.9836L195.829 41.3155L207.827 52.8533L208.218 52.5507L186.246 13.3899ZM183.591 36.48L187.254 26.7666L192.578 36.3096L183.591 36.48Z" stroke="#221700" stroke-width="0.5"/>
    </g>
    <defs>
      <filter id="filter0_d_129_340" x="0.00256348" y="0.951782" width="213.933" height="72.1097" filterUnits="userSpaceOnUse" color-interpolation-filters="sRGB">
        <feFlood flood-opacity="0" result="BackgroundImageFix"/>
        <feColorMatrix in="SourceAlpha" type="matrix" values="0 0 0 0 0 0 0 0 0 0 0 0 0 0 0 0 0 0 127 0" result="hardAlpha"/>
        <feOffset dy="4"/>
        <feGaussianBlur stdDeviation="2.75"/>
        <feComposite in2="hardAlpha" operator="out"/>
        <feColorMatrix type="matrix" values="0 0 0 0 0.117647 0 0 0 0 0.117647 0 0 0 0 0.117647 0 0 0 1 0"/>
        <feBlend mode="normal" in2="BackgroundImageFix" result="effect1_dropShadow_129_340"/>
        <feBlend mode="normal" in="SourceGraphic" in2="effect1_dropShadow_129_340" result="shape"/>
      </filter>
    </defs>
  </svg>