<svg xmlns="http://www.w3.org/2000/svg" width="1412" height="205" viewBox="0 0 1412 205" fill="none">
    <path
        d="M2 0V162.4H21.3318M21.3318 162.4H40.6636V181.138M21.3318 162.4V15.6154M21.3318 162.4V181.138M40.6636 181.138V199.877H681.835L735.5 148.5L772.05 184.262H1371.34M40.6636 181.138H21.3318M40.6636 181.138H639.95L673.5 148.5L730.165 203H1371.34V184.262M21.3318 181.138V199.877L2 181.138H21.3318ZM1410 3.12308V165.523H1390.67M1390.67 165.523H1371.34V184.262M1390.67 165.523V18.7385M1390.67 165.523V184.262M1371.34 184.262H1390.67M1390.67 184.262V203L1410 184.262H1390.67Z"
        stroke="#221700" />
</svg>