<svg xmlns="http://www.w3.org/2000/svg" width="46" height="46" viewBox="0 0 46 46" fill="none">
    <rect width="46" height="46" fill="#FBFAE3" />
    <rect width="46" height="46" rx="4" fill="#FBFAE3" />
    <path
        d="M23 13.5783C26.0482 13.5783 26.4639 13.5783 27.7108 13.5783C28.8193 13.5783 29.3735 13.8554 29.7892 13.994C30.3434 14.2711 30.759 14.4096 31.1747 14.8253C31.5904 15.241 31.8675 15.6566 32.006 16.2108C32.1446 16.6265 32.2831 17.1807 32.4217 18.2892C32.4217 19.5361 32.4217 19.8133 32.4217 23C32.4217 26.1867 32.4217 26.4639 32.4217 27.7108C32.4217 28.8193 32.1446 29.3735 32.006 29.7892C31.7289 30.3434 31.5904 30.759 31.1747 31.1747C30.759 31.5904 30.3434 31.8675 29.7892 32.006C29.3735 32.1446 28.8193 32.2831 27.7108 32.4217C26.4639 32.4217 26.1867 32.4217 23 32.4217C19.8133 32.4217 19.5361 32.4217 18.2892 32.4217C17.1807 32.4217 16.6265 32.1446 16.2108 32.006C15.6566 31.7289 15.241 31.5904 14.8253 31.1747C14.4096 30.759 14.1325 30.3434 13.994 29.7892C13.8554 29.3735 13.7169 28.8193 13.5783 27.7108C13.5783 26.4639 13.5783 26.1867 13.5783 23C13.5783 19.8133 13.5783 19.5361 13.5783 18.2892C13.5783 17.1807 13.8554 16.6265 13.994 16.2108C14.2711 15.6566 14.4096 15.241 14.8253 14.8253C15.241 14.4096 15.6566 14.1325 16.2108 13.994C16.6265 13.8554 17.1807 13.7169 18.2892 13.5783C19.5361 13.5783 19.9518 13.5783 23 13.5783ZM23 11.5C19.8133 11.5 19.5361 11.5 18.2892 11.5C17.0422 11.5 16.2108 11.7771 15.5181 12.0542C14.8253 12.3313 14.1325 12.747 13.4398 13.4398C12.747 14.1325 12.4699 14.6867 12.0542 15.5181C11.7771 16.2108 11.6386 17.0422 11.5 18.2892C11.5 19.5361 11.5 19.9518 11.5 23C11.5 26.1867 11.5 26.4639 11.5 27.7108C11.5 28.9578 11.7771 29.7892 12.0542 30.4819C12.3313 31.1747 12.747 31.8675 13.4398 32.5602C14.1325 33.253 14.6867 33.5301 15.5181 33.9458C16.2108 34.2229 17.0422 34.3614 18.2892 34.5C19.5361 34.5 19.9518 34.5 23 34.5C26.0482 34.5 26.4639 34.5 27.7108 34.5C28.9578 34.5 29.7892 34.2229 30.4819 33.9458C31.1747 33.6687 31.8675 33.253 32.5602 32.5602C33.253 31.8675 33.5301 31.3133 33.9458 30.4819C34.2229 29.7892 34.3614 28.9578 34.5 27.7108C34.5 26.4639 34.5 26.0482 34.5 23C34.5 19.9518 34.5 19.5361 34.5 18.2892C34.5 17.0422 34.2229 16.2108 33.9458 15.5181C33.6687 14.8253 33.253 14.1325 32.5602 13.4398C31.8675 12.747 31.3133 12.4699 30.4819 12.0542C29.7892 11.7771 28.9578 11.6386 27.7108 11.5C26.4639 11.5 26.1867 11.5 23 11.5Z"
        fill="#221700" />
    <path
        d="M23 17.0422C19.6747 17.0422 17.0422 19.6747 17.0422 23C17.0422 26.3253 19.6747 28.9578 23 28.9578C26.3253 28.9578 28.9578 26.3253 28.9578 23C28.9578 19.6747 26.3253 17.0422 23 17.0422ZM23 26.8795C20.9217 26.8795 19.1205 25.2169 19.1205 23C19.1205 20.9217 20.7831 19.1205 23 19.1205C25.0783 19.1205 26.8795 20.7831 26.8795 23C26.8795 25.0783 25.0783 26.8795 23 26.8795Z"
        fill="#221700" />
    <path
        d="M29.0964 18.2892C29.8616 18.2892 30.4819 17.6688 30.4819 16.9036C30.4819 16.1384 29.8616 15.5181 29.0964 15.5181C28.3312 15.5181 27.7108 16.1384 27.7108 16.9036C27.7108 17.6688 28.3312 18.2892 29.0964 18.2892Z"
        fill="#221700" />
</svg>