<svg xmlns="http://www.w3.org/2000/svg" width="46" height="46" viewBox="0 0 46 46" fill="none">
    <rect width="46" height="46" fill="#FBFAE3" />
    <rect width="46" height="46" rx="4" fill="#FBFAE3" />
    <path fill-rule="evenodd" clip-rule="evenodd"
        d="M12.9519 31.1153C12.5008 30.9819 12.0892 30.7444 11.7518 30.4231C11.4144 30.1017 11.1612 29.7059 11.0135 29.2689C10.1694 27.0105 9.91925 17.58 11.545 15.7183C12.0861 15.1127 12.85 14.7398 13.6709 14.6806C18.0323 14.2228 31.5071 14.2839 33.0547 14.8332C33.49 14.9711 33.8876 15.2033 34.2179 15.5125C34.5482 15.8217 34.8025 16.1998 34.9618 16.6186C35.8841 18.9533 35.9153 27.4377 34.8367 29.6809C34.5506 30.2648 34.0716 30.7378 33.4767 31.0238C31.851 31.8173 15.1091 31.802 12.9519 31.1153ZM19.8769 26.69L27.6929 22.7225L19.8769 18.7244V26.69Z"
        fill="#221700" />
</svg>